<svg width="68" height="101" fill="none" xmlns="http://www.w3.org/2000/svg"><path d="M12.9 33.26s6.158-.86 4.72-8.28c0 0-6.884 1.54-4.72 8.28Z" fill="#0068FF"/><path opacity=".1" d="M12.9 33.26s6.158-.86 4.72-8.28c0 0-6.884 1.54-4.72 8.28Z" fill="#000"/><path d="M13.211 31.712c.121-.372.261-.738.42-1.096v-.14c0-.102.02-.203.028-.307.016-.22.03-.441.044-.663.024-.444.055-.888.06-1.332 0-.025.039-.022.039 0v1.332c0 .222-.02.44-.036.663v.148c.347-.739.76-1.444 1.236-2.108.211-.296.434-.578.673-.852.239-.274.505-.548.755-.822.017-.017.041 0 .025.027a10.91 10.91 0 0 0-1.192 1.57 13.08 13.08 0 0 0-.533.866l.057-.021.22-.088.5-.208c.33-.121.662-.242.992-.368.019 0 .033.028 0 .036-.327.129-.651.274-.975.408l-.478.203c-.08.036-.16.069-.242.099a.671.671 0 0 1-.162.057c-.124.225-.247.447-.36.675a15.65 15.65 0 0 0-.752 1.77l-.047.129c.162-.093.331-.175.505-.244l.638-.29c.433-.198.862-.398 1.277-.63.019-.014.038.021.016.032-.423.23-.824.477-1.26.704-.212.116-.426.228-.643.332-.18.107-.376.186-.58.233a7.274 7.274 0 0 0-.403 1.743c-.07.839-.061 1.686-.08 2.525h-.022a29.164 29.164 0 0 1-.099-2.3c.013-.71.14-1.414.379-2.083Z" fill="#263238"/><path d="M14.159 27.349c.059.433.08.87.063 1.307h-.02c-.024-.433-.03-.866-.08-1.3.012-.024.034-.032.037-.007ZM15.92 27.719c.275-.104.541-.233.793-.387.02-.014.038.02.02.03a3.045 3.045 0 0 1-.803.384c-.014.003-.025-.02-.01-.027ZM12.703 45.04c0-.68.016-1.356.025-2.036.013-2.255.033-4.511.074-6.767.029-1.792.07-3.583.123-5.372 0-.005.002-.01.005-.014a.03.03 0 0 1 .012-.01v-1.467s0-.02.027-.02c.028 0 .03 0 .03.02v1.472c.009 0 .017.002.023.007a.036.036 0 0 1 .013.02c.09 3.188.17 6.375.19 9.563v1.946c.022 2.078.03 4.156.024 6.235v.993c0 1.902-.022 3.804-.022 5.703 0 .104-.112.154-.233.16-.12.005-.275-.05-.275-.168 0-2.097-.016-4.193-.016-6.29-.006-1.33-.011-2.65 0-3.974Z" fill="#263238"/><path d="M15.276 42.977s2.961-2.193 5.768-.71 3.252 7.186 3.252 7.186-4.12.59-6.732-1.88c-2.496-2.379-2.288-4.596-2.288-4.596Z" fill="#0068FF"/><path d="M14.469 43.114a3.537 3.537 0 0 1 1.714-.225c.12-.02.243-.032.365-.036l.418-.03.862-.06c.585-.044 1.173-.08 1.755-.14.02 0 .025.036 0 .039-.577.074-1.15.156-1.73.213-.297.03-.596.06-.896.083l-.214.019c.088.022.176.04.261.066.465.136.915.32 1.343.548.233.04.467.107.695.161.365.085.73.179 1.099.274.72.19 1.43.4 2.145.609.024 0 0 .041 0 .036-.715-.176-1.431-.335-2.145-.505l-1.041-.25-.275-.062a8.632 8.632 0 0 1 2.107 1.828c.58.706 1.07 1.479 1.463 2.302 0 .022-.019.041-.03.02a11.296 11.296 0 0 0-1.771-2.32c0 .04.024.08.038.119l.165.523c.11.348.22.696.324 1.044 0 .025-.027.033-.036 0-.126-.337-.244-.677-.362-1.014a36.07 36.07 0 0 1-.176-.501l-.09-.258c0-.027-.02-.055-.028-.08-.33-.32-.682-.619-1.052-.893a7.895 7.895 0 0 0-1.571-.899c0 .05.02.101.03.15l.085.404c.058.274.113.548.168.841.113.573.181 1.151.274 1.724a.02.02 0 0 1-.001.018.019.019 0 0 1-.016.008.019.019 0 0 1-.016-.008.02.02 0 0 1-.002-.018c-.135-.573-.305-1.14-.434-1.718-.063-.288-.13-.576-.19-.864l-.082-.405c0-.077-.033-.151-.041-.228l-.16-.066a4.679 4.679 0 0 0-2.471-.337 2.42 2.42 0 0 0-1.783 1.425c-.027.066-.129.025-.115-.04a2.283 2.283 0 0 1 1.417-1.497Z" fill="#263238"/><path d="M19.003 45.55c.083.373.168.749.25 1.124.094.36.163.727.206 1.096 0 .014-.019.014-.021 0a8.42 8.42 0 0 1-.253-1.096l-.217-1.096a.023.023 0 0 1-.005-.017c0-.003.002-.005.003-.008a.023.023 0 0 1 .014-.01.022.022 0 0 1 .009-.001l.008.003a.023.023 0 0 1 .006.005ZM21.868 46.496c.38.192.745.408 1.137.565.025 0 0 .046 0 .032a11.302 11.302 0 0 1-1.131-.583s-.014-.014-.006-.014Z" fill="#263238"/><path d="M14.609 38.956s3.62.23 5.306-2.154c1.687-2.385 1.305-5.786 1.305-5.786s-3.801.463-5.312 2.173c-1.51 1.71-1.299 5.767-1.299 5.767Z" fill="#0068FF"/><path d="M12.909 42.522c.126-.39.274-.77.428-1.149.154-.378.292-.726.45-1.082.328-.73.694-1.44 1.1-2.13.255-.441.53-.866.823-1.285 0-.066.02-.13.03-.192l.05-.337c.036-.228.077-.458.115-.686.083-.498.187-.994.275-1.493 0-.025.041-.022.038 0-.07.493-.12.99-.192 1.483-.033.243-.066.485-.101.726l-.042.274c.553-.806 1.151-1.58 1.791-2.319l.275-.296c0-.027.025-.052.035-.082l.077-.206c.055-.142.108-.274.157-.43.102-.274.195-.57.275-.86 0-.023.04-.014.035 0-.074.296-.15.592-.239.885-.04.142-.088.274-.137.42l-.025.07c.462-.504.945-.99 1.431-1.469.02-.016.044 0 .028.028a25.776 25.776 0 0 0-2.618 3.14c.09-.027.182-.049.275-.065.275-.055.55-.093.843-.129.588-.077 1.178-.15 1.766-.244.022 0 .033.033 0 .038-.55.11-1.118.236-1.675.365-.275.058-.527.11-.791.162a5.41 5.41 0 0 0-.635.18l-.178.25c-.275.386-.52.781-.77 1.179l.369-.074c.274-.053.55-.105.843-.151.55-.09 1.099-.187 1.648-.31a.019.019 0 0 1 .012.018.019.019 0 0 1-.003.01.019.019 0 0 1-.01.008c-.548.131-1.098.274-1.647.427-.275.072-.53.137-.8.195l-.403.088a.917.917 0 0 1-.162.027 40.109 40.109 0 0 0-1.486 2.626c-.2.395-.395.79-.582 1.19-.187.4-.36.822-.55 1.246-.019.09-.15.044-.123-.046Z" fill="#263238"/><path d="M16.605 34.214c.069-.342.14-.688.217-1.03 0-.025.041-.014.036 0-.069.337-.132.677-.195 1.017-.05.341-.12.68-.206 1.014a7.44 7.44 0 0 1 .148-1ZM18.729 34.116c.167-.085.346-.151.519-.22l.275-.107.14-.057a.635.635 0 0 0 .154-.066c.027-.022.043.028.016.033a.67.67 0 0 0-.154.063l-.137.06-.275.118c-.18.08-.362.15-.55.211.004.011-.007-.027.012-.035Z" fill="#263238"/><path d="M10.901 36.114s-2.197-4.087-5.523-4.717c-3.326-.63-5.375 2.79-5.375 2.79s2.43 3.1 5.493 3.64c3.062.54 5.405-1.713 5.405-1.713Z" fill="#0068FF"/><path d="M3.148 33.228a8.896 8.896 0 0 1 2.614.03l-.148-.08c-.247-.126-.494-.252-.739-.38-.513-.275-1.03-.549-1.565-.763a.02.02 0 0 1-.01.002.02.02 0 0 1-.008-.004.02.02 0 0 1-.006-.025.018.018 0 0 1 .006-.006A.02.02 0 0 1 3.31 32c.521.244 1.063.447 1.584.688.275.118.52.244.775.378.165.088.346.17.508.274a9.256 9.256 0 0 1 2.12.702l-.417-.453c-.31-.34-.615-.696-.959-1.005-.016-.017 0-.042.028-.025.349.315.717.608 1.057.937.162.16.319.324.473.494.077.085.153.172.225.274a8.8 8.8 0 0 1 4.471 6.03c0 .021-.03.035-.035 0a10.082 10.082 0 0 0-2.453-4.14 9.655 9.655 0 0 0-4.466-2.578 9.887 9.887 0 0 0-3.082-.274c-.035-.006-.038-.069.009-.074Z" fill="#263238"/><path opacity=".1" d="M0 34.187s2.433 3.1 5.493 3.64c2.335.414 4.255-.803 5.035-1.4l.167-.275s-1.576-1.33-4.565-2.094c-2.988-.765-6.13.129-6.13.129Z" fill="#000"/><path d="M5.07 31.77c.256.149.504.311.742.487.231.176.446.373.642.587.017.02 0 .044-.03.027-.22-.192-.442-.383-.673-.564a6.966 6.966 0 0 0-.688-.512.02.02 0 0 1 .007-.026ZM3.25 32.46c.123.052.25.096.373.148l.37.154c.028 0 .014.054 0 .044l-.37-.151c-.127-.05-.247-.107-.371-.156-.036-.011-.025-.047-.003-.039Z" fill="#263238"/><path d="M11.34 41.255s-.587 4.051-3.639 5.482c-3.051 1.43-6.778 0-6.778 0s1.464-8.781 10.418-5.482Z" fill="#0068FF"/><path d="M3.027 44.09c.274-.033.549-.083.84-.132l.412-.077.214-.044c.083-.076.162-.153.248-.227.578-.508 1.203-.96 1.867-1.351.362-.214.736-.407 1.12-.576h-.057l-1.005.044c-.67.033-1.34.047-2.01.09a.02.02 0 0 1-.02-.019c0-.005.002-.01.006-.013a.02.02 0 0 1 .013-.006c.673-.047 1.34-.12 2.014-.178l.975-.085.502-.044.13-.014c.183-.065.358-.126.527-.18a4.753 4.753 0 0 1 2.587-.143c.77.195 1.535.699 1.733 1.507 0 .028-.036.047-.047.02-.288-.677-1.038-1.017-1.716-1.157a4.05 4.05 0 0 0-1.373-.028c-.03.21-.082.416-.154.615-.083.274-.168.57-.253.855-.173.567-.365 1.132-.533 1.702a.019.019 0 0 1-.002.018.02.02 0 0 1-.016.008.02.02 0 0 1-.02-.017l.002-.01c.14-.567.275-1.142.399-1.712.066-.274.137-.548.206-.839.04-.194.092-.387.154-.576a7.71 7.71 0 0 0-.791.187c-.468.14-.927.31-1.374.507-.044.288-.11.575-.176.86-.082.357-.175.71-.29 1.061 0 .022-.04 0-.034 0 .006 0 0-.044.014-.066.069-.331.143-.663.212-.992.057-.274.11-.548.167-.803-.379.17-.752.356-1.112.562 0 .085-.028.167-.041.244-.022.14-.047.274-.072.416-.058.313-.12.623-.195.932a15.104 15.104 0 0 1-.524 1.763.022.022 0 0 1 0 .024l-.017.02c0 .016-.036 0-.03-.02.14-.6.302-1.195.434-1.797.066-.302.132-.603.192-.905.03-.15.06-.302.088-.455 0-.041 0-.088.022-.134a12.904 12.904 0 0 0-3.021 2.45c-.022.025-.066 0-.044-.038.233-.305.464-.603.728-.886.153-.164.313-.323.475-.477h-.052a8.877 8.877 0 0 1-.429.064c-.275.038-.566.065-.849.098-.038-.008-.046-.044-.024-.046Z" fill="#263238"/><path d="m5.175 45.463.016-.104c0-.047.03-.088.038-.135.063-.274.115-.548.165-.822 0-.02.033 0 .033 0-.019.363-.097.72-.23 1.058h-.022v.003ZM7.729 45.4a.02.02 0 0 1 .006-.012.02.02 0 0 1 .013-.005c.085-.359.168-.718.242-1.08.038-.189.08-.378.115-.57l.058-.307a.925.925 0 0 1 .066-.274.02.02 0 0 1 .033 0c.005.186-.021.371-.077.548-.036.198-.074.395-.118.592-.088.4-.19.798-.302 1.193 0 .022-.042.016-.042 0l.006-.085ZM3.307 42.933c.55-.077 1.115-.156 1.673-.225.024 0 .032.033 0 .036-.55.082-1.118.15-1.676.225-.01-.009-.022-.036.003-.036Z" fill="#263238"/><path d="M12.903 31.75s1.87-8.181-6.937-11.49c0 0-2.442 10.767 6.937 11.49Z" fill="#0068FF"/><path d="m11.003 27.11-.094-.057-.5-.274-1.021-.565c-.67-.376-1.335-.765-2.01-1.132-.023 0 0-.044.019-.033.678.367 1.373.713 2.048 1.072l1.011.548.412.216a21.635 21.635 0 0 0-.953-1.625 25.56 25.56 0 0 0-1.489-2.023.03.03 0 0 1 .024-.049.03.03 0 0 1 .02.008c.77.744 1.453 1.572 2.036 2.47v-.085c0-.203 0-.406-.02-.611 0-.398.014-.798 0-1.198 0-.025.036-.022.039 0 .016.395.063.786.085 1.178 0 .198.02.392.025.59v.342c.181.288.354.581.519.877.296.532.56 1.081.788 1.645 0-.206.02-.409.033-.611.025-.45.08-.894.099-1.343 0-.005.002-.01.006-.014a.02.02 0 0 1 .033.014v1.343c0 .224 0 .446-.028.671l-.017.25c.28.73.502 1.482.665 2.247.152.816.262 1.64.33 2.467a13.164 13.164 0 0 0-.467-2.193c-.11-.386-.223-.77-.349-1.151-.365-.173-.717-.386-1.071-.584-.354-.197-.736-.403-1.099-.603-.736-.403-1.47-.822-2.227-1.167-.022 0 0-.042.019-.03.769.345 1.543.676 2.296 1.055.376.186.744.389 1.099.594.305.17.618.343.912.549a15.638 15.638 0 0 0-.275-.76c-.261-.693-.563-1.37-.898-2.028Z" fill="#263238"/><path d="M11.744 25.24c0-.024.041-.024.039 0-.03.47-.047.936-.096 1.401 0 .025-.044.025-.042 0 .017-.471.066-.934.1-1.4ZM7.523 26.803c.55.222 1.098.43 1.648.66.014 0 0 .03 0 .025-.55-.208-1.099-.433-1.648-.65-.033-.008-.022-.043 0-.035ZM6.685 23.029c.539.247 1.061.527 1.566.839.027.016 0 .055-.025.04-.51-.298-1.03-.583-1.56-.846-.022-.011-.003-.041.02-.033Z" fill="#263238"/><path d="M6.82 62.801h12.703V49.44H6.82V62.8Z" fill="#455A64"/><path d="M20.396 54.168h-.65v22.886h.65V54.168ZM6.663 54.168h-.65v22.886h.65V54.168ZM13.184 54.168h-.651v22.886h.65V54.168Z" fill="#263238"/><path d="M6.34 63.793h13.732v-1.85H6.339v1.85Z" fill="#263238"/><path d="M60.944 99.12c-.612.186-17.976-.34-18.624-.781-.25-.162-1.146-16.294-1.146-16.294l11.261.274.775 10.571s6.556 3.168 7.218 3.728c.662.559 1.129 2.307.516 2.502Z" fill="#AD6359"/><path d="M42.32 98.328c.645.438 18.012.967 18.624.778.613-.189.13-1.94-.527-2.497-.374-.312-2.61-1.452-4.496-2.39 1.269.666 3.88 2.952-4.03 1.645-5.353-.894-8.574-1.645-10.033-2.064.02 2.475.247 4.385.462 4.528Z" fill="#263238"/><path d="m52.836 88.749-11.513.564s-2.198-1.439-2.717-4.043c-1.477-7.622.989-21.833.918-22.214-.127-.652-8.699-32.068-8.699-32.068h11s9.16 27.97 9.797 30.681c.865 3.692 1.349 15.563 2.519 22.437a5.47 5.47 0 0 1-1.305 4.643Z" fill="#37474F"/><path d="M39.518 63.037c-.253-1.124-8.69-32.068-8.69-32.068h5.408l3.282 32.068Z" fill="#263238"/><path d="M32.377 100.997c-.64.025-17.303-4.867-17.82-5.457-.2-.219.371-2.686 1.151-5.643l.025-.093c.16-.609 3.551-10.64 3.551-10.64l10.654 3.1-3.42 10.577-.057.18s5.54 4.72 6.042 5.427c.503.708.514 2.528-.126 2.549Z" fill="#AD6359"/><path d="M15.32 91.369c-.57 2.267-.936 3.988-.768 4.171.516.59 17.18 5.482 17.82 5.457.64-.024.617-1.844.123-2.549-.305-.43-2.472-2.351-4.133-3.787 1.098 1.038 2.62 3.44-4.455.548-4.36-1.76-7.07-3.062-8.586-3.84Z" fill="#263238"/><path d="M41.268 30.975s-.275 8.94-1.961 10.785c0 0-2.79 17.92-3.398 22.908-.607 4.988-2.84 15.411-5.084 21.06-.964 2.434-3.227 3.78-3.227 3.78l-10.94-2.54s-1.865-4.312-.865-6.595c2.747-6.288 8.602-16.607 8.646-16.944.338-2.626 2.143-20.63 1.992-21.083-1.555-4.62.975-11.371.975-11.371h13.862Z" fill="#37474F"/><path d="M41.946 40.228c-.9.554-1.853 1.019-2.845 1.387-.974.4-1.968.748-2.978 1.044-.035 0-.019.063.017.055.986-.274 1.986-.469 2.952-.806-.082.329-.126.671-.18 1-.072.425-.141.85-.204 1.275-.13.852-.24 1.707-.355 2.562-.233 1.71-.477 3.418-.708 5.129-.126.95-.25 1.904-.332 2.86 0 .042.063.047.071 0 .338-1.687.566-3.395.824-5.1.258-1.705.53-3.404.764-5.111.065-.488.131-.979.189-1.47.061-.402.101-.807.12-1.214h.017a9.148 9.148 0 0 0 2.703-1.551c.03-.027-.017-.096-.055-.06ZM40.218 32.578c0-.038-.08-.041-.074 0 .14 1.398.168 2.637.173 3.955 0 .611-.17 4.013-1.25 3.867-.18-.024-.274-.189-.337-.452a4.148 4.148 0 0 1 .041-1.041c.052-.716.08-1.428.071-2.144 0-1.334-.138-2.665-.414-3.971a.036.036 0 0 0-.056-.019.036.036 0 0 0-.013.019c.205 1.828.27 3.669.195 5.506-.05.886-.365 2.24.55 2.289.914.05 1.34-2.207 1.397-2.82.13-1.735.035-3.479-.282-5.189Z" fill="#263238"/><path d="M39.103 40.49c-.07.236-.127.475-.17.716-.05.19-.065.386-.044.581 0 .039.055.036.074 0 .092-.183.156-.379.192-.58.06-.223.123-.445.178-.67a.118.118 0 0 0-.23-.046ZM30.427 11.986a.855.855 0 0 0 .629 1.543.896.896 0 0 0 0 .362.943.943 0 0 0 1.046.724.82.82 0 0 0 .014.304.86.86 0 0 0 1.033.641.84.84 0 0 0 .491-.31.856.856 0 0 0 1.338.417.86.86 0 0 0 1.3.61.862.862 0 0 0 .348-.399.845.845 0 0 0 .967.472.857.857 0 0 0 .634-.595.963.963 0 0 0 .964-.089.922.922 0 0 0 .25-.276.946.946 0 0 0 1.445-.748.885.885 0 0 0 .338 0 .857.857 0 0 0 .659-.918c.137.033.28.033.417 0a.94.94 0 0 0 .733-.995.937.937 0 0 0-.142-.422c.05.001.1-.005.148-.02a.858.858 0 0 0 .646-1.027.822.822 0 0 0-.226-.406.942.942 0 0 0 .624-1.096.923.923 0 0 0-.253-.452.948.948 0 0 0 .404-1.003.934.934 0 0 0-.527-.642.842.842 0 0 0 .129-.68.823.823 0 0 0-.423-.548.942.942 0 0 0-.651-1.543.863.863 0 0 0 0-.41.853.853 0 0 0-.918-.661.916.916 0 0 0 0-.406.945.945 0 0 0-1.34-.63.943.943 0 0 0-1.379-.776.874.874 0 0 0-.019-.274.948.948 0 0 0-1.328-.646.95.95 0 0 0-.413.372.926.926 0 0 0-.89-.274.945.945 0 0 0-.58.4.857.857 0 0 0-1.332-.229.866.866 0 0 0-.239.363.855.855 0 0 0-1.373.598.938.938 0 0 0-1.288.195.953.953 0 0 0-.2.602.806.806 0 0 0-.314 0 .86.86 0 0 0-.642 1.03.822.822 0 0 0 .123.275h-.055a.948.948 0 0 0-.697 1.162c.02.09.055.175.101.255a.855.855 0 0 0-.87 1.047.84.84 0 0 0 .387.548.854.854 0 0 0 .11 1.37.94.94 0 0 0 .365 1.752.853.853 0 0 0-.236.8.86.86 0 0 0 .692.633Z" fill="#263238"/><path d="M37.271 18.164c1.555 4.3 5.038 9.593 6.955 10.771 1.785 1.097 7.476-.444 10.52-1.611 1.372-.52-.627-7.011-2.338-6.701-1.066.194-6.438 1.946-6.776 1.682-1.648-1.282-2.236-2.192-5.606-5.065-1.71-1.46-3.749-1.822-2.755.924Z" fill="#AD6359"/><path d="M52.825 27.6c.904-.032 4.282-.47 6.455-1.457 1.054-.48 3.935-2.174 3.628-3.015-.308-.842-1.192-.414-1.192-.414s1.099-.9.725-1.71c-.374-.812-1.741-.113-1.741-.113s1.07-1.006.629-1.79c-.443-.784-1.69.151-1.69.151s1.025-.874.388-1.37c-.767-.592-2.472 1.23-3.662 1.702-.274.107-5.64 1.779-5.64 1.779l2.1 6.238Z" fill="#AD6359"/><path d="M59.615 19.255c-1.258 1.337-2.038 1.705-3.788 2.16-.035 0-.03.063 0 .055 1.753-.288 2.799-.609 3.845-2.158.06-.074.003-.12-.057-.057ZM60.766 20.858c-1.426 1.275-2.27 1.683-4.068 2.294-.025 0-.014.052 0 .044 1.813-.45 2.85-.795 4.12-2.256.057-.065.014-.14-.052-.082ZM61.592 22.818c-1.47 1.135-2.375 1.62-4.197 1.99a.035.035 0 0 0-.025.034.035.035 0 0 0 .026.034c1.895-.197 3.02-.795 4.218-2.009.09-.085.072-.12-.022-.049Z" fill="#263238"/><path d="M50.01 21.401s1.428-1.8 2.23-2.453c.802-.652 4.694-1.984 5.03-1.165.433 1.063-1.649 2.272-2.764 2.74 0 0 1.008 2.454-.305 3.646-1.313 1.192-4.191-2.768-4.191-2.768Z" fill="#AD6359"/><path d="M57.291 18.115c-.302 1.252-1.788 1.762-2.826 2.288a.104.104 0 0 0-.03.17c.351 1.058.549 2.65-.162 3.593a.027.027 0 0 0 .005.036.027.027 0 0 0 .018.007.027.027 0 0 0 .018-.007c.892-.91.824-2.489.37-3.62 1.075-.524 2.541-1.097 2.62-2.467h-.013Z" fill="#263238"/><path d="m44.036 20.68-4.12 5.482s-3.254-6.787-3.644-9.045c-.443-2.549.96-2.217 2.985-.822 2.024 1.395 4.78 4.385 4.78 4.385Z" fill="#EBEBEB"/><path d="M42.9 20.132c-.619.628-2.198 2.768-2.473 3.119-.14.186-.667.948-.81 1.132-.017.025.022.047.041.025.275-.351.577-.675.849-1.023.272-.348 1.966-2.466 2.414-3.231.014-.017-.008-.036-.022-.022Z" fill="#263238"/><path d="M43.273 21.702 39.93 26.16s-3.255-6.789-3.647-9.045c-.149-.869-.086-1.403.142-1.672l6.848 6.26Z" fill="#263238"/><path d="m41.394 27.809.505 3.32-14.466-.124s1.074-10.533 5.147-14.639c2.038-2.053 4.334-1.809 5.749-.274.357.39 3.988 5.523 4.375 7.773.335 1.984-1.31 3.944-1.31 3.944Z" fill="#EBEBEB"/><path d="M38.974 26.737c-.772.07-1.537.197-2.29.381a16.9 16.9 0 0 0-1.099.33c-.184.06-.365.114-.55.166-.19.062-.39.1-.59.113a.014.014 0 0 0-.014.014.014.014 0 0 0 .014.013c.19.012.38.012.569 0 .185-.022.368-.057.549-.104.38-.093.753-.205 1.132-.304.76-.195 1.524-.392 2.298-.548.025-.006.017-.066-.019-.06ZM40.88 27.414a17.144 17.144 0 0 0-1.922-.087c-.322 0-.637.027-.956.057l-.456.052c-.165.022-.33.066-.497.085-.017 0-.017.03 0 .028.157-.014.319 0 .475 0l.478-.014.956-.025a49.21 49.21 0 0 1 1.909-.04.028.028 0 0 0 .034-.021.028.028 0 0 0-.02-.035Z" fill="#263238"/><path d="M34.618 15.396c0 .29.887 2.403 2.167 2.647.418.08.953-2.173.953-2.173l.077-.156L38.9 13.52l-2.318-2.415-.34-.326s-.256.622-.57 1.4c0 .036-.03.072-.043.11-.014.039-.038.085-.052.127-.05.115-.096.232-.143.353-.047.12-.072.178-.104.274l-.105.274c-.25.678-.453 1.372-.607 2.078Z" fill="#AD6359"/><path d="m38.9 13.51-1.04 2.116a5.249 5.249 0 0 1-2.275-3.24l.088-.219c.313-.776.568-1.398.568-1.398l.341.326L38.9 13.51Z" fill="#263238"/><path d="M42.962 10.366c-.384 4.29-3.002 4.545-3.93 4.46-.84-.074-3.697-.442-3.757-4.747-.06-4.306 2.057-5.482 3.99-5.414 1.934.069 4.07 1.412 3.697 5.701Z" fill="#AD6359"/><path d="M42.33 9.454c-.098-.028-.183-.069-.274-.104a.464.464 0 0 1-.275-.16.15.15 0 0 1 .028-.183.385.385 0 0 1 .384-.036c.133.041.246.129.319.247a.164.164 0 0 1-.181.236ZM39.565 9.188c.1-.001.2-.008.3-.02a.479.479 0 0 0 .298-.076.159.159 0 0 0 .028-.187.392.392 0 0 0-.36-.142.575.575 0 0 0-.376.145.165.165 0 0 0 .11.28ZM40.04 10.117s-.026 0-.026.022c-.027.293-.107.622-.38.688v.016c.326-.005.427-.447.405-.726Z" fill="#263238"/><path d="M39.818 9.769c-.465-.093-.618.841-.187.929.43.088.577-.841.187-.93Z" fill="#263238"/><path d="M39.625 9.799c-.09.041-.187.12-.275.115-.087-.005-.186-.118-.247-.225h-.016a.344.344 0 0 0 .195.43c.173.053.324-.084.398-.257.003-.025-.02-.077-.055-.063ZM41.655 10.317s.022.017.019.027c-.052.274-.063.628.184.765-.318-.082-.3-.534-.203-.792Z" fill="#263238"/><path d="M41.962 10.043c.476.036.371.976-.065.943-.437-.033-.333-.968.066-.943Z" fill="#263238"/><path d="M42.152 10.13c.069.058.132.157.22.17.088.014.19-.073.274-.164 0 .181-.093.362-.274.378-.181.017-.275-.153-.275-.337-.005-.024.025-.071.055-.046ZM39.85 11.71a.982.982 0 0 0 .618.482c.115.03.233.044.352.04h.132a.068.068 0 0 0 .06-.06.057.057 0 0 0 0-.03v-.024c.022-.22.025-.548.025-.548.077.046.475.274.478.145a14.63 14.63 0 0 0-.162-2.977c0-.033-.052-.027-.052 0-.05.921.063 1.842.027 2.766a1.614 1.614 0 0 0-.45-.173c-.03 0 0 .65 0 .748a1.377 1.377 0 0 1-.99-.389c-.03-.022-.054-.003-.038.02Z" fill="#263238"/><path d="M40.716 12.197c-.15.135-.333.23-.53.274a.53.53 0 0 1-.325-.033c-.222-.098-.195-.312-.12-.487.037-.098.087-.19.148-.274.211.258.502.441.827.52Z" fill="#263238"/><path d="M40.185 12.485a.53.53 0 0 1-.324-.033c-.222-.098-.195-.312-.12-.488a.55.55 0 0 1 .444.521Z" fill="#FF99BA"/><path d="M35.442 9.974c.69.168 1.099-1.263 1.099-1.263s1.414.238 2.219-1.716a3.16 3.16 0 0 1-.906 1.576s2.54.148 3.938-1.762c0 0-.596.992-1.052 1.304a2.963 2.963 0 0 0 1.747-.882s.236 1.277.52 1.664c0 0 .62-4.386-3.505-4.58 0 0-2.56-.253-3.804 1.598-1.245 1.85-.256 4.061-.256 4.061Z" fill="#263238"/><path d="M35.305 10.33c.077.615-.948-2.323-.887-2.74.06-.417 1.129-2.434 3.02-3.122 1.594-.573 3.385.16 3.698.29.35.14.667.354.928.626 0 0-2.348-.97-4.477-.598-1.027.184-2.573 3.242-2.282 5.545Z" fill="#0068FF"/><path d="M36.697 4.18s.616-1.22 1.783-1.452c0 0 .052 1.17-.33 1.59-.19.208-1.098.364-1.225.221a2.222 2.222 0 0 1-.228-.359Z" fill="#0068FF"/><path opacity=".1" d="M36.697 4.18c.064.126.14.245.226.357a.046.046 0 0 0 .021.016.08.08 0 0 0 .028.016h.025c.17.03.343.024.51-.016a2.555 2.555 0 0 0-.17-.493.752.752 0 0 0-.379-.29c-.1.128-.186.266-.26.41Z" fill="#050400"/><path d="M36.423 4.364s-1.662-.115-2.42.307c0 0 .5.822 1.34.956.377.066 1.396-.693 1.321-.88a1.613 1.613 0 0 0-.241-.383Z" fill="#0068FF"/><path opacity=".1" d="M36.046 4.35a.933.933 0 0 0 .075.548c.06.1.142.186.238.253.198-.165.333-.321.305-.395a1.756 1.756 0 0 0-.241-.384s-.149-.022-.377-.022Z" fill="#050400"/><path d="M36.283 4.748a.549.549 0 1 0 .935-.576.549.549 0 0 0-.935.576Z" fill="#0068FF"/><path d="M35.92 10.468s-.692-1.489-1.354-1.264c-.662.225-.305 2.267.357 2.653a.729.729 0 0 0 1.03-.213l-.033-1.176Z" fill="#AD6359"/><path d="M34.692 9.788s-.016 0 0 .017c.462.287.64.792.74 1.301a.402.402 0 0 0-.412-.264.405.405 0 0 0-.166.05c-.013 0 0 .03 0 .028a.457.457 0 0 1 .46.241c.069.138.123.284.161.433.017.05.099.041.09 0 .127-.655-.194-1.622-.873-1.806Z" fill="#263238"/><path d="M35.45 11.75a.211.211 0 1 1-.096-.215.209.209 0 0 1 .096.216Z" fill="#fff"/><path d="M61.557 13.557c-.021.396-.145.78-.36 1.115 0-.074-.028-.15-.047-.23a2.146 2.146 0 0 0-.069-.241 4.565 4.565 0 0 0-.87-1.5l-.13-.15-.035-.039c-.02-.024-.044-.043-.063-.068-3.524-4.46-6.883 2.765-6.954 2.933 0 0-.196-7.206 3.655-7.4 3.016-.16 5.054 3.354 4.873 5.58Z" fill="#455A64"/><path d="M61.188 14.672a1.513 1.513 0 0 1-.315.332c-1.84 1.406-7.485.438-7.836.378h-.017c5.307.51 6.762-1.417 7.018-2.867l.035.039.13.15c.381.441.676.95.87 1.5.028.082.05.161.069.24.019.08.046.154.046.228Z" fill="#263238"/><path d="M44.366 14.376c.056.394.217.766.464 1.077a1.76 1.76 0 0 1 .025-.235c.01-.083.024-.166.044-.247a4.545 4.545 0 0 1 .725-1.576c.035-.052.071-.107.112-.162l.03-.04c.02-.025.042-.05.058-.075 3.085-4.774 7.117 2.1 7.202 2.259 0 0-.497-7.192-4.348-7.025-3.016.131-4.702 3.823-4.312 6.024Z" fill="#455A64"/><path d="M44.83 15.453c.099.118.215.219.346.3 1.964 1.224 7.493-.275 7.836-.368h.017c-5.236 1.011-6.867-.768-7.263-2.193l-.03.041c-.04.055-.077.11-.112.162a4.621 4.621 0 0 0-.725 1.576c-.02.085-.033.167-.044.247a1.76 1.76 0 0 0-.025.235Z" fill="#263238"/><path d="M62.35 17.328H43.336l1.57 21.392h15.486l1.958-21.392Z" fill="#0068FF"/><path d="M43.67 18.833a.323.323 0 0 1-.202.304l-.044-.628a.332.332 0 0 1 .247.324Zm3.832-.335a.336.336 0 0 0-.331.398.335.335 0 1 0 .331-.398Zm4.164 0a.336.336 0 0 0-.332.398.334.334 0 0 0 .457.246.335.335 0 0 0-.125-.644Zm4.164 0a.335.335 0 0 0-.237.571.335.335 0 0 0 .474-.473.335.335 0 0 0-.237-.098Zm4.164 0a.335.335 0 1 0 0 .67.335.335 0 0 0 0-.67Zm-12.492 6.425a.336.336 0 0 0-.331.398.335.335 0 1 0 .566-.3.335.335 0 0 0-.235-.098Zm4.164 0a.336.336 0 0 0-.332.398.335.335 0 1 0 .332-.398Zm4.164 0a.335.335 0 1 0 0 .67.335.335 0 0 0 0-.67Zm4.164 0a.335.335 0 1 0 0 .67.335.335 0 0 0 0-.67Zm-14.574-3.05a.335.335 0 1 0-.005.67.335.335 0 0 0 .005-.67Zm4.164 0a.335.335 0 1 0-.006.67.335.335 0 0 0 .006-.67Zm4.164 0a.336.336 0 0 0-.335.334.334.334 0 0 0 .572.236.334.334 0 0 0-.237-.57Zm4.164 0a.336.336 0 0 0-.329.399.334.334 0 1 0 .329-.4Zm3.826.331a.329.329 0 0 0 .137.274l.05-.57a.335.335 0 0 0-.187.296ZM47.497 31.35a.335.335 0 1 0 .332.332.331.331 0 0 0-.327-.332h-.005Zm4.164 0a.335.335 0 1 0 .332.332.331.331 0 0 0-.327-.332h-.005Zm4.163 0a.335.335 0 0 0-.235.572.335.335 0 0 0 .473-.473.336.336 0 0 0-.232-.099h-.005Zm4.164 0a.335.335 0 0 0-.236.572.335.335 0 0 0 .474-.473.336.336 0 0 0-.232-.099h-.006ZM45.42 28.297a.335.335 0 1 0-.005.67.335.335 0 0 0 .005-.67Zm4.164 0a.335.335 0 1 0-.006.67.335.335 0 0 0 .006-.67Zm4.164 0a.336.336 0 0 0-.329.4.334.334 0 1 0 .33-.4Zm4.164 0a.336.336 0 0 0-.329.4.334.334 0 1 0 .329-.4Zm-10.41 9.478a.335.335 0 1 0-.006.67.335.335 0 0 0 .006-.67Zm4.164 0a.335.335 0 1 0-.006.67.335.335 0 0 0 .006-.67Zm4.164 0a.336.336 0 0 0-.329.4.334.334 0 1 0 .329-.4Zm4.164 0a.336.336 0 0 0-.329.4.334.334 0 0 0 .457.243.336.336 0 0 0 .109-.545.336.336 0 0 0-.237-.098ZM45.42 34.71a.336.336 0 0 0-.331.398.335.335 0 1 0 .567-.299.335.335 0 0 0-.236-.099Zm4.164 0a.336.336 0 0 0-.332.398.335.335 0 1 0 .567-.299.335.335 0 0 0-.235-.099Zm4.164 0a.335.335 0 1 0 0 .67.335.335 0 0 0 0-.67Zm4.164 0a.335.335 0 1 0 0 .67.335.335 0 0 0 0-.67Z" fill="#fff"/><path d="M67.475 17.328h-6.687l-.396 21.392 5.31-.266 1.773-21.126Z" fill="#0068FF"/><path d="M64.484 18.833a.334.334 0 1 1-.668 0 .334.334 0 0 1 .668 0Zm-.335 6.09a.335.335 0 0 0-.237.57.335.335 0 1 0 .245-.57h-.008Zm-2.082-3.05a.336.336 0 0 0-.328.399.334.334 0 0 0 .457.244.334.334 0 0 0-.12-.644h-.009Zm4.164 0a.336.336 0 0 0-.328.399.334.334 0 0 0 .456.244.334.334 0 0 0-.12-.644h-.008ZM64.15 31.35a.335.335 0 0 0-.24.567.335.335 0 1 0 .248-.567h-.008Zm-2.082-3.053a.336.336 0 0 0-.328.4.334.334 0 0 0 .457.243.334.334 0 0 0-.12-.643h-.009Zm4.164 0a.335.335 0 0 0-.237.57.335.335 0 0 0 .237.099.33.33 0 0 0 .275-.14l.03-.343a.334.334 0 0 0-.296-.186h-.009Zm-2.082 9.478a.336.336 0 0 0-.328.4.334.334 0 0 0 .457.243.334.334 0 0 0-.12-.643h-.009Zm-2.073-3.065a.335.335 0 1 0 0 .67.335.335 0 0 0 0-.67Zm3.828.338a.295.295 0 0 0 .066.191l.036-.433a.332.332 0 0 0-.102.253v-.011Z" fill="#fff"/><path opacity=".1" d="M67.475 17.328h-6.687l-.396 21.392 5.31-.266 1.773-21.126Z" fill="#000"/><path d="M42.46 15.706v4.51l18.275-.558v-5.164L42.46 15.706Z" fill="#0068FF"/><path d="M43.336 19.167a.335.335 0 1 0 0-.67.335.335 0 0 0 0 .67ZM47.502 19.167a.335.335 0 1 0 .001-.67.335.335 0 0 0 0 .67ZM51.666 19.167a.335.335 0 1 0 0-.67.335.335 0 0 0 0 .67ZM55.83 19.167a.335.335 0 1 0 0-.67.335.335 0 0 0 0 .67ZM60.329 18.833a.334.334 0 0 1-.572.236.334.334 0 1 1 .474-.473.334.334 0 0 1 .098.237ZM45.753 15.78a.335.335 0 1 1-.668 0 .323.323 0 0 1 .124-.255l.39-.028a.342.342 0 0 1 .154.283ZM49.584 16.114a.335.335 0 1 0 0-.67.335.335 0 0 0 0 .67ZM53.748 16.114a.335.335 0 1 0 0-.67.335.335 0 0 0 0 .67ZM57.912 16.114a.335.335 0 1 0 0-.67.335.335 0 0 0 0 .67Z" fill="#fff"/><path opacity=".1" d="M42.46 15.706v4.51l18.275-.558v-5.164L42.46 15.706Z" fill="#000"/><path d="m67.61 20.217-6.875-.56v-5.163L68 15.706l-.39 4.51Z" fill="#0068FF"/><path d="M64.484 18.833a.334.334 0 1 1-.668 0 .334.334 0 0 1 .668 0Zm-2.417-3.385a.336.336 0 0 0-.328.4.334.334 0 0 0 .459.242.335.335 0 0 0-.122-.642h-.009Zm4.164 0a.336.336 0 0 0-.328.4.334.334 0 1 0 .336-.4h-.008Z" fill="#fff"/><path d="M54.509 38.81h-4.296l-.431-23.59 5.07-.337-.343 23.928Z" fill="#455A64"/><path d="M62.625 38.81h1.461l1.505-23.507-2.04-.34-.926 23.848Z" fill="#37474F"/><path d="M32.416 20.568c.977 4.336 2.746 13.394 5.446 15.277 3.554 2.467 11.972 1.823 14.208 1.735.975-.038 1.099-6.518.297-7.18-.802-.664-9.866-.823-10.588-1.122-.723-.299-4.016-6.734-6.043-9.916-2.563-4.016-4.144-2.467-3.32 1.206Z" fill="#AD6359"/><path d="M53.309 30.953c-.473-.156-.393-.406.44-.702.831-.296 4.394-.767 4.119-1.987-.275-1.22-5.265-.488-6.614.112-1.348.6-3.318 2.045-3.318 2.045.995.052 3.409.406 5.373.532Z" fill="#AD6359"/><path d="M48.36 37.775c2.823.04 6.338.274 9.11-1.308.312-.167.559-.434.7-.759 1.255-.682 1.307-1.477 1.307-1.477.975-.995.918-1.815.918-1.815s1.464-.822 1.115-1.784c-.387-1.096-2.368.274-3.914.362-3.546.192-8.64-.526-9.668-.573l.431 7.354Z" fill="#AD6359"/><path d="M54.02 33.8a23.014 23.014 0 0 0 3.095-.345 22.855 22.855 0 0 0 3.25-1.055.027.027 0 0 1 .018.002.027.027 0 0 1 .003.047 12.078 12.078 0 0 1-6.358 1.398c-.055-.003-.06-.044-.008-.047ZM53.825 35.952c1.01-.131 2.785-.373 5.639-1.751 0 0 .019 0 0 .013A10.837 10.837 0 0 1 53.819 36c-.046.002-.046-.039.006-.047ZM53.743 37.111c1.708-.29 2.746-.688 4.419-1.406 0 0 .019 0 0 .017-1.81 1.017-2.585 1.181-4.428 1.447-.055.008-.06-.047.009-.058Z" fill="#263238"/><path d="m38.702 23.635-5.24 4.327s-1.552-7.304-1.398-9.579c.167-2.562 1.445-1.918 3.07-.093 1.627 1.826 3.568 5.345 3.568 5.345Z" fill="#EBEBEB"/><path d="M37.736 22.84c-.745.463-2.774 2.157-3.112 2.434-.179.148-.866.759-1.044.904-.022.02 0 .05.033.033.34-.274.714-.515 1.057-.79.344-.273 2.472-1.918 3.085-2.554a.017.017 0 0 0 .007-.01c0-.005 0-.01-.003-.013a.017.017 0 0 0-.023-.004ZM37.293 21.078c-.15-.324-.304-.65-.467-.968.102.244.212.482.322.724a25.311 25.311 0 0 0-.912-1.289c.385.697.824 1.37 1.214 2.061.39.691.8 1.34 1.208 2.007-.104.118-.211.233-.318.345a.022.022 0 1 0 .03.033c.137-.101.275-.203.418-.302a.077.077 0 0 0 .03-.1 40.544 40.544 0 0 0-1.525-2.511Z" fill="#263238"/></svg>