<svg xmlns="http://www.w3.org/2000/svg" xmlns:xlink="http://www.w3.org/1999/xlink">
  <defs>
    <symbol viewBox="0 0 24 24" id="arrowUpRight">
      <path fill="currentColor" d="M18.25 15.5a.75.75 0 0 1-.75-.75V7.56L7.28 17.78a.749.749 0 0 1-1.275-.326.749.749 0 0 1 .215-.734L16.44 6.5H9.25a.75.75 0 0 1 0-1.5h9a.75.75 0 0 1 .75.75v9a.75.75 0 0 1-.75.75Z"></path>
    </symbol>
    <symbol viewBox="0 0 77 24" id="clerkLogo">
      <path fill="currentColor" d="M35.16 16.75a4.2 4.2 0 0 1-3.05 1.28 3.54 3.54 0 0 1-2.6-1.04 3.73 3.73 0 0 1-.99-2.66c0-2.2 1.43-3.7 3.59-3.7A3.92 3.92 0 0 1 35.14 12L37 10.36a6.6 6.6 0 0 0-5.05-2.24c-3.65 0-6.24 2.52-6.24 6.23a6.2 6.2 0 0 0 1.73 4.46 6.14 6.14 0 0 0 4.41 1.73 6.9 6.9 0 0 0 5.21-2.12l-1.9-1.68Zm3.58-13.32h2.76v16.92h-2.76V3.43Zm16.1 11.86c.04-.37.06-.74.07-1.11 0-3.5-2.3-6.05-5.85-6.05-1.69 0-3.16.63-4.22 1.72a6.32 6.32 0 0 0-1.66 4.48c0 3.75 2.65 6.22 6.15 6.22a6.2 6.2 0 0 0 5.06-2.25l-1.8-1.6-.1-.08c-.62.77-1.6 1.41-3.01 1.41a3.32 3.32 0 0 1-3.43-2.74h8.79Zm-8.74-2.22a3.36 3.36 0 0 1 .74-1.45c.57-.65 1.4-1 2.37-1 1.58 0 2.57 1 2.9 2.45H46.1Zm17.37-4.98v3.1a13.1 13.1 0 0 0-.83-.06c-2.1 0-3.29 1.5-3.29 3.48v5.74H56.6V8.27h2.76v1.83h.03c.93-1.29 2.3-2 3.75-2h.34Zm6.44 7.2-2 2.22v2.84h-2.76V3.43h2.76V13.8l4.94-5.5h3.28l-4.34 4.86 4.42 7.18H73.1l-3.14-5.06h-.05ZM19.12 3.16l-2.88 2.88a.57.57 0 0 1-.7.09 6.87 6.87 0 0 0-9.17 1.95 6.87 6.87 0 0 0-.24 7.46.57.57 0 0 1-.09.7l-2.88 2.88a.57.57 0 0 1-.86-.06A12 12 0 0 1 19.05 2.3a.57.57 0 0 1 .06.86Z"></path><path fill="currentColor" d="m19.12 20.84-2.88-2.88a.57.57 0 0 0-.7-.09 6.87 6.87 0 0 1-7.08 0 .57.57 0 0 0-.7.09l-2.89 2.88a.57.57 0 0 0 .07.86 12 12 0 0 0 14.12 0 .57.57 0 0 0 .06-.86ZM12 15.43a3.43 3.43 0 1 0 0-6.86 3.43 3.43 0 0 0 0 6.86Z"></path>
    </symbol>
    <symbol viewBox="0 0 16 16" id="gear">
      <path fill="currentColor" fill-rule="evenodd" d="M9.49 1.17c-.38-1.56-2.6-1.56-2.98 0a1.53 1.53 0 0 1-2.29.95c-1.37-.84-2.94.73-2.1 2.1.54.89.06 2.05-.95 2.3-1.56.37-1.56 2.6 0 2.97a1.53 1.53 0 0 1 .95 2.29c-.84 1.37.73 2.94 2.1 2.1a1.53 1.53 0 0 1 2.3.95c.37 1.56 2.6 1.56 2.97 0a1.53 1.53 0 0 1 2.29-.95c1.37.84 2.94-.73 2.1-2.1a1.53 1.53 0 0 1 .95-2.3c1.56-.37 1.56-2.6 0-2.97a1.53 1.53 0 0 1-.95-2.29c.84-1.37-.73-2.94-2.1-2.1a1.53 1.53 0 0 1-2.3-.95ZM8 11a3 3 0 1 0 0-6 3 3 0 0 0 0 6Z" clip-rule="evenodd"></path>
    </symbol>
    <symbol viewBox="0 0 24 24" id="gift">
      <path fill="currentColor" d="M3.75 3.75A3.75 3.75 0 0 1 7.5 0c1.455 0 3.436.901 4.5 3.11C13.064.901 15.044 0 16.5 0a3.75 3.75 0 0 1 3 6h1.75c.966 0 1.75.784 1.75 1.75v2.5c0 .698-.409 1.301-1 1.582v8.418A1.75 1.75 0 0 1 20.25 22H3.75A1.75 1.75 0 0 1 2 20.25v-8.418c-.591-.282-1-.884-1-1.582v-2.5C1 6.784 1.784 6 2.75 6H4.5a3.733 3.733 0 0 1-.75-2.25ZM20.5 12h-7.75v8.5h7.5a.25.25 0 0 0 .25-.25Zm-9.25 8.5V12H3.5v8.25c0 .138.112.25.25.25Zm10-10a.25.25 0 0 0 .25-.25v-2.5a.25.25 0 0 0-.25-.25h-8.5v3Zm-18.5 0h8.5v-3h-8.5a.25.25 0 0 0-.25.25v2.5c0 .138.112.25.25.25Zm16-6.75A2.25 2.25 0 0 0 16.5 1.5c-1.15 0-3.433 1.007-3.72 4.5h3.72a2.25 2.25 0 0 0 2.25-2.25ZM11.22 6c-.287-3.493-2.57-4.5-3.72-4.5a2.25 2.25 0 1 0 0 4.5Z"></path>
    </symbol>
    <symbol viewBox="0 0 24 24" id="heart">
      <path fill="currentColor" d="M14 20.408c-.492.308-.903.546-1.192.709-.153.086-.308.17-.463.252h-.002a.75.75 0 0 1-.686 0 16.709 16.709 0 0 1-.465-.252 31.147 31.147 0 0 1-4.803-3.34C3.8 15.572 1 12.331 1 8.513 1 5.052 3.829 2.5 6.736 2.5 9.03 2.5 10.881 3.726 12 5.605 13.12 3.726 14.97 2.5 17.264 2.5 20.17 2.5 23 5.052 23 8.514c0 3.818-2.801 7.06-5.389 9.262A31.146 31.146 0 0 1 14 20.408Z"></path>
    </symbol>
    <symbol viewBox="0 0 24 24" id="link">
      <path fill="currentColor" d="M14.78 3.653a3.936 3.936 0 1 1 5.567 5.567l-3.627 3.627a3.936 3.936 0 0 1-5.88-.353.75.75 0 0 0-1.18.928 5.436 5.436 0 0 0 8.12.486l3.628-3.628a5.436 5.436 0 1 0-7.688-7.688l-3 3a.75.75 0 0 0 1.06 1.061l3-3Z"></path><path fill="currentColor" d="M7.28 11.153a3.936 3.936 0 0 1 5.88.353.75.75 0 0 0 1.18-.928 5.436 5.436 0 0 0-8.12-.486L2.592 13.72a5.436 5.436 0 1 0 7.688 7.688l3-3a.75.75 0 1 0-1.06-1.06l-3 3a3.936 3.936 0 0 1-5.567-5.568l3.627-3.627Z"></path>
    </symbol>
    <symbol viewBox="0 0 15 16" id="signOut">
      <path fill="currentColor" d="M1 0a1 1 0 0 0-1 1v12a1 1 0 1 0 2 0V1a1 1 0 0 0-1-1Zm10.3 9.3a1 1 0 0 0 1.4 1.4l3-3a1 1 0 0 0 0-1.4l-3-3a1 1 0 1 0-1.4 1.4L12.58 6H5a1 1 0 1 0 0 2h7.59l-1.3 1.3Z"></path>
    </symbol>
  </defs>
</svg>