<svg width="100" height="110" fill="none" xmlns="http://www.w3.org/2000/svg"><path d="M47.264 42.967C32.86 58.521 14.924 91.049 18.45 97.538c3.928 7.219 23.98-14.58 23.89-15.834-.07-.947 6.81-20.649 12.039-34.964 5.23-14.316-3.551-7.62-7.114-3.773Z" fill="#D3766A"/><path d="M42.857 81.659c.616-2.09 10.329-27.894 13.095-36.05 2.767-8.157.05-10.628-8.089-3.072-8.139 7.556-25.85 32.647-29.773 45.883-3.78 12.75 2.814 12.65 11.427 6.671 7.053-4.897 13.34-13.432 13.34-13.432Z" fill="#0068FF"/><path d="M55.832 39.635c.055-.02.11-.04.168-.067a1.093 1.093 0 0 0-.09-.207c-.11.044-.222.085-.335.123-.91.29-2.023.387-2.823-.245a1.77 1.77 0 0 1-.249-.239l-.22.11c.816.985 2.382.956 3.55.525Zm-6.285 1.34.222-.178c.128.063.255.12.382.175 1.82.807 4.069 1.62 5.644 2.984l-.07.29a11.2 11.2 0 0 0-2.785-1.776c-1.113-.542-2.286-.97-3.393-1.495Zm-2.023 5.466a15.014 15.014 0 0 0-1.78-1.923c.057-.064.118-.125.176-.187 1.662 1.457 2.852 3.683 4.433 5.096a7.642 7.642 0 0 0 3.052 1.748c-.026.076-.052.151-.081.227a7.151 7.151 0 0 1-2.2-1.07c-1.493-1.022-2.493-2.493-3.603-3.903l.003.012Zm-8.21 5.768c2.404 3.29 6.765 4.079 10.591 4.661.462.07.925.146 1.387.24-.032.084-.06.171-.092.258-1.616-.332-3.277-.471-4.884-.841-2.68-.618-5.491-1.897-7.17-4.1l.167-.218Zm-3.275 28.355c1.653-.416 3.156.137 4.61.912.477.257.96.528 1.445.781l-.165.216c-1.96-1.017-3.847-2.284-6.104-1.544-.737.241-1.445.716-1.734 1.456-.375.965.047 1.97.714 2.683.934.994 2.208 1.39 3.442 1.86l-.214.241-1.066-.42c-1.471-.582-3.2-1.666-3.306-3.449-.078-1.436 1.084-2.412 2.375-2.736h.003Zm5.751-17.77c-1.156-1.658-2.24-3.38-3.404-5.04-.503-.72-1.032-1.458-1.61-2.148l.165-.224c.305.365.6.739.884 1.121 1.173 1.57 2.225 3.228 3.318 4.854 1.647 2.45 3.58 5.209 6.118 6.907-.032.09-.064.178-.098.268-2.174-1.453-3.922-3.682-5.376-5.742l.003.003Zm-.578 4.37a4 4 0 0 1-.298 2.09 3.964 3.964 0 0 1-1.32 1.641c-1.347.932-2.853.359-3.81-.836-.577-.705-.973-1.515-1.479-2.26a9.484 9.484 0 0 0-2.147-2.288 6.407 6.407 0 0 0-1.607-.874l.165-.253c.358.137.702.308 1.029.51 1.633 1.002 2.627 2.549 3.627 4.137.514.81 1.133 1.672 2.083 1.978a2.328 2.328 0 0 0 2.312-.627c1.387-1.305 1.477-3.312.43-4.847-1.103-1.626-3.013-2.5-4.82-3.083-.924-.291-1.878-.542-2.812-.842l.16-.236c1.878.61 3.88 1.035 5.49 1.996 1.385.83 2.728 2.124 2.983 3.799l.014-.006Zm-15.317 5.042c.782.95 1.709 1.769 2.746 2.424a12.14 12.14 0 0 0 5.664 2.004 7.777 7.777 0 0 0 5.572-1.68c1.373-1.113 2.601-2.494 4.422-2.797a5.388 5.388 0 0 1 1.56-.032c-.037.102-.072.2-.11.29a4.988 4.988 0 0 0-2.12.222c-.96.324-1.752.985-2.503 1.64a13.352 13.352 0 0 1-2.29 1.748c-.809.438-1.69.725-2.6.848a10.614 10.614 0 0 1-5.352-.728c-1.83-.728-3.827-1.981-5.156-3.642l.167-.297Zm-.014 25.168c-.269.146-.535.292-.795.408a9.236 9.236 0 0 0-2.543.997 8.465 8.465 0 0 1-1.02.221c.88-.555 1.821-1 2.806-1.329a7.58 7.58 0 0 1 1.55-.29l.002-.007Zm-1.445-22.587.127-.227c2.44.527 4.717 2.287 5.624 4.527.717 1.769.29 3.496-.468 5.174a25.632 25.632 0 0 0-1.251 2.896 10.43 10.43 0 0 0-.471 2.812 9.628 9.628 0 0 0 1.34 5.244l-.225.157a9.573 9.573 0 0 1-1.324-3.936 10.685 10.685 0 0 1 .726-5.197c.789-1.935 2.13-3.84 1.734-6.037-.509-2.627-3.09-4.833-5.824-5.407l.012-.006ZM18.061 89.13c.789.256 1.598.444 2.419.562.982.122 2.167.079 2.745-.874.416-.688.341-1.57.116-2.31-.494-1.614-1.79-2.54-3.012-3.563.032-.082.07-.163.107-.245.616.51 1.263.99 1.818 1.526.994.962 1.734 2.489 1.5 3.904-.289 1.778-2.08 2.025-3.569 1.792-.74-.138-1.47-.327-2.185-.565-.003-.064.026-.143.05-.222l.01-.005Z" fill="#fff"/><path opacity=".1" d="M30 95c6.93-4.897 13.106-13.439 13.106-13.439.602-2.09 10.15-27.906 12.865-36.066 1.003-3.017 1.273-5.255.808-6.495L30 95Z" fill="#000"/><path d="M43.007 100H100S88.342 54.443 69.083 35.591c-2.582-2.529-12.64-2.102-14.96 1.706C45.434 51.582 42.85 99.797 43.007 100Z" fill="#0068FF"/><path d="M50.225 74.83c2.254 3.154-.197 7.451-3.791 8.194a4.877 4.877 0 0 1-2.228-.073l-.027.29c.671.18 1.373.222 2.06.122 3.197-.49 5.887-3.845 5.03-7.04-.659-2.49-3.237-4.224-5.792-4.303 0 .105-.026.206-.04.31.219.003.438.02.656.053.82.114 1.608.39 2.318.81a6.15 6.15 0 0 1 1.814 1.637ZM97.82 92l.089-.072c.032.096.062.191.091.29-2.24 1.824-2.702 5.109-3.42 7.78h-.294c.765-2.799 1.183-6.026 3.534-7.998Zm-9.585-16.237c-1.751-.11-3.532-.687-4.597-2.134-.824-1.116-1.254-2.687-.645-3.992.707-1.51 2.431-1.91 3.973-1.873.668.014 1.328.078 1.984.15l.124.29a12.689 12.689 0 0 0-3.238-.107c-.948.128-1.88.537-2.41 1.354a3.078 3.078 0 0 0-.324 2.372c.447 1.9 2.019 3.097 3.89 3.497 1.658.354 3.344.162 5.004-.073l.106.264a19.98 19.98 0 0 1-3.867.252Zm-2.47 21.135c1.672-.29 4.356 1.281 5.257-.87.677-1.612-.294-3.413-1.33-4.625-1.263-1.47-2.893-2.569-4.503-3.639-2.973-1.98-10.175-8.043-6.737-10.612 3.205-2.392 7.322 4.587 9.733 6.776 2.13 1.931 5.25 3.68 8.3 3.636l.088.258c-3.082.052-6.128-1.676-8.418-3.546-3.013-2.459-5.983-8.852-9.465-6.892-2.89 1.627 2.499 7.33 5.483 9.357 1.504 1.023 3.067 1.983 4.439 3.19 1.212 1.06 2.401 2.37 2.769 3.971.27 1.183.132 2.703-1.089 3.323-.777.397-1.657.247-2.478.093-1.033-.197-2.001-.316-2.96.197-.48.26-.9.614-1.233 1.04a3.907 3.907 0 0 0-.71 1.44h-.315v-.015c.403-1.47 1.627-2.798 3.178-3.08l-.008-.002ZM64.785 61.11a4.404 4.404 0 0 1 4.708.229c1.472 1.026 2.375 2.685 3.067 4.285.77 1.789 1.471 3.77 2.972 5.094.813.722 2.093 1.354 3.09.58.651-.504.884-1.394.922-2.18.056-1.682-.963-3.27-1.98-4.54-1.054-1.32-2.285-2.488-3.347-3.802-.986-1.218-1.851-2.61-2.084-4.175-.115-.774 0-1.612.645-2.131a2.68 2.68 0 0 1 1.918-.453c1.672.16 3.1 1.357 4.106 2.61.561.71 1.054 1.47 1.472 2.27.456.856.794 1.769 1.256 2.61.536.986 1.457 1.464 2.57 1.128a3.59 3.59 0 0 0 1.81-1.322 9.8 9.8 0 0 1 .12.252c-.818.989-2.042 1.76-3.346 1.342-.827-.266-1.271-1.003-1.613-1.74-.394-.87-.777-1.719-1.242-2.542-.933-1.656-2.23-3.352-4.073-4.086-.774-.307-1.766-.432-2.534-.034-1.068.553-.933 1.847-.653 2.824.936 3.238 4.029 5.285 5.886 7.979.847 1.235 1.55 2.725 1.35 4.253-.182 1.375-1.177 2.653-2.722 2.32-1.816-.388-2.999-2.276-3.737-3.801-.842-1.74-1.407-3.598-2.605-5.14-1.198-1.543-3.037-2.576-5.03-1.906-2.133.716-3.355 2.792-3.434 4.93-.148 3.905 2.648 7.138 5.497 9.495 2.743 2.264 5.842 4.108 8.38 6.617a18.286 18.286 0 0 1 5.218 10.284c.356 2.386.353 5.257-.627 7.626h-.371c.29-.702.505-1.432.641-2.178.754-3.984-.164-8.298-2.19-11.792-1.95-3.366-5.017-5.671-8.122-7.942-2.731-1.997-5.592-4.08-7.32-7.04-1.848-3.122-2.287-7.898 1.41-9.922l-.009-.002Zm-9.557 18.437a5.637 5.637 0 0 1 .703-2.53 5.73 5.73 0 0 1 1.778-1.952 4.166 4.166 0 0 1 4.565-.067c1.415.893 2.33 2.473 2.68 4.06.51 2.304.086 4.67.04 6.996a23.03 23.03 0 0 0 3.522 12.638c.28.444.589.87.906 1.3h-.4a20.02 20.02 0 0 1-2.378-4.164 23.34 23.34 0 0 1-1.74-6.168c-.308-2.238-.164-4.433-.043-6.668.114-2.152.044-4.404-1.23-6.243-1.122-1.618-3.082-2.61-5.027-1.803-1.946.806-3.038 2.847-3.079 4.877-.118 4.195 2.943 7.718 5.042 11.096 1 1.606 1.898 3.305 2.319 5.155.291 1.29.335 2.62.13 3.926h-.295a10.29 10.29 0 0 0-.259-4.44c-1.08-3.768-3.897-6.729-5.695-10.147-.945-1.821-1.66-3.816-1.53-5.863l-.01-.003Zm-8.55 12.758c1.095-1.288 2.681-2.143 4.415-1.975 1.59.154 2.984 1.16 3.326 2.74.391 1.827-.589 3.723-1.604 5.187-.395.58-.842 1.14-1.269 1.726h-.332c.8-1.131 1.698-2.204 2.307-3.454.883-1.809 1.177-4.29-.883-5.453-1.74-.99-3.882-.415-5.268.884-1.501 1.409-2.204 3.421-2.622 5.373a47.82 47.82 0 0 0-.468 2.65H44c.43-2.735.848-5.51 2.687-7.67l-.009-.008ZM64.778 35c.161.016.32.033.477.052a11.349 11.349 0 0 0 2.302 2.015 12.701 12.701 0 0 0 3.86 1.74l.36.4a9.658 9.658 0 0 1-.986-.252c-2.157-.684-4.518-2.062-6.013-3.955Zm-.412 8.04c.354-.694.445-1.49.256-2.244-.33-1.473-1.524-2.9-3.09-3.146-2.028-.325-3.629 1.432-5.4 2.067-.901.325-2.031.42-2.89.024.032-.07.067-.137.1-.2.767.382 1.727.29 2.528.026 1.8-.58 3.237-2.213 5.241-2.19 2.649.035 4.68 3.355 3.532 5.695-.403.812-1.177 1.363-1.84 1.943a5.923 5.923 0 0 0-1.621 2.081 6.012 6.012 0 0 0-.05 4.802 4.177 4.177 0 0 0 1.484 1.833 4.27 4.27 0 0 0 2.254.753 5.137 5.137 0 0 0 2.24-.453 5.063 5.063 0 0 0 1.81-1.376c.469-.578.736-1.29.761-2.03.027-.992-.353-1.954-.588-2.9-.374-1.406-.43-3.25 1.204-3.893 1.31-.52 2.86.127 3.885.948 1.368 1.093 1.921 2.818 2.686 4.32.819 1.603 2.014 3.126 3.959 3.3.124 0 .244.017.365.017l.162.29h-.077c-1.571.014-2.884-.792-3.793-2.03-1.072-1.45-1.53-3.247-2.567-4.726-.883-1.255-2.775-2.415-4.37-1.92-2.322.723-1.157 3.553-.774 5.136.347 1.43.185 2.777-.842 3.897-1.892 2.055-5.465 2.32-7.314.087-1.895-2.303-1.489-6.002.663-8.006.694-.664 1.606-1.215 2.086-2.105Zm-8.455 8.348c-1.563.58-3.288-.13-4.577-1.01a9.474 9.474 0 0 1-1.507-1.29l.071-.249c.209.22.427.432.65.63 1.357 1.185 3.423 2.377 5.283 1.681 1.916-.716 2.322-2.92 1.716-4.64-.683-1.95-2.557-3.133-4.362-3.968a27.61 27.61 0 0 0-1.015-.444c.026-.075.059-.148.091-.223 2.76 1.18 5.651 2.708 5.819 5.967.076 1.502-.671 2.986-2.17 3.546Zm-9.763 15.895a10.737 10.737 0 0 0 4.074 2.218c2.104.58 4.238.075 5.574-1.69a8.534 8.534 0 0 0 1.283-2.61c.362-1.16.624-2.41.294-3.601-.535-2.001-2.483-3.254-4.379-3.84-1.624-.504-3.331-.672-5.003-.942.02-.092.038-.185.056-.29.688.122 1.374.23 2.042.328 1.987.29 4.026.696 5.645 1.943a5.03 5.03 0 0 1 1.67 2.082c.357.829.48 1.737.358 2.63-.233 1.791-.96 3.769-2.263 5.062-1.304 1.293-3.129 1.661-4.907 1.29a10.452 10.452 0 0 1-4.488-2.282c.02-.09.044-.194.044-.299Z" fill="#fff"/><path d="M18.403 96.657c4.125 4.138 12.356 4.506 35.858 5.343 3.24.117 10.267-21.895 6.802-22.192-4.366-.374-21.392-.904-22.64-.793-10.545.956-22.813 14.837-20.02 17.642Z" fill="#D3766A"/><path d="M53.092 79.7s9.306-2.07 14.531-1.642c6.996.572 12.802 3.945 15.15 5.505 4.9 3.255 14.508 14.5 11.734 17.841-2.502 3.013-11.728-8.99-11.728-8.99s11.428 10.686 7.751 13.761c-3.677 3.074-13.595-11.47-13.595-11.47s11.493 11.245 7.2 13.813c-3.257 1.945-12.97-10.721-12.97-10.721s9.814 9.748 6.563 11.873c-3.594 2.367-13.305-8.763-13.305-8.763-9.178 4.054-15.212 2.231-19.346.423-1-.438 8.015-21.63 8.015-21.63Z" fill="#D3766A"/><path d="M78.615 89.008c1.356 1.148 2.734 2.301 3.98 3.562a55.543 55.543 0 0 1 3.566 3.939c2.745 3.356 3.924 5.874 3.834 5.725-2.135-3.494-6.522-8.075-7.768-9.335-1.245-1.26-2.421-2.577-3.664-3.838-.032-.039.02-.078.052-.053Zm-4.756 4.296c1.664 1.536 3.375 3.005 4.97 4.614 1.595 1.61 2.95 3.258 4.424 4.963.113.129 0 .146-.115.02-1.538-1.646-3.092-3.053-4.65-4.68-1.558-1.625-3.052-3.316-4.664-4.88-.032-.026.008-.06.035-.037Zm-4.766 2.971c2.667 2.223 4.913 4.924 7.046 7.622.107.135-.038.14-.154 0-2.294-2.577-4.071-4.617-6.97-7.543-.046-.034.023-.127.078-.079Z" fill="#263238"/><path d="M58 79.224 41.904 104s-19.882-1.828-23.588-6.424C15.873 94.552 28.041 79.201 39.518 79L58 79.224Z" fill="#0068FF"/><path d="M55.34 79.422a8.839 8.839 0 0 0 .462 3.3l.198-.286a8.797 8.797 0 0 1-.372-2.743c.006-.209.024-.417.053-.624h-.295c-.023.114-.039.232-.047.353Zm-4.426 10.603-.177.262a5.06 5.06 0 0 0-3.266 1.359c-1.505 1.387-2.21 3.367-2.63 5.288-.209.95-.36 1.935-.516 2.925l-.365.548c.475-2.97.77-6.067 2.811-8.421 1.033-1.196 2.508-2.021 4.14-1.961h.003ZM28.338 85.88c.59-1.367 1.454-2.717 1.743-4.173l.275-.157a8.64 8.64 0 0 1-.788 2.386c-.486.92-.913 1.867-1.278 2.837a9.845 9.845 0 0 0-.48 2.754c-.118 3.759 2.009 7.443 5.886 8.5 3.487.95 7.443-.509 8.42-4.085a6.108 6.108 0 0 0-.493-4.549c-.988-1.772-2.818-2.317-4.64-3.017-1.503-.57-3.267-1.632-3.376-3.379-.086-1.427 1.1-2.374 2.42-2.69 1.687-.409 3.221.133 4.705.892 1.803.922 3.653 2.072 5.783 1.639a6.145 6.145 0 0 0 2.714-1.366A5.862 5.862 0 0 0 50.911 79h.357a6.219 6.219 0 0 1-1.883 2.74 6.529 6.529 0 0 1-3.062 1.43c-3.836.57-6.653-3.71-10.51-2.509-.752.237-1.474.702-1.77 1.427-.383.945.048 1.93.73 2.629 1.492 1.523 3.835 1.61 5.546 2.8 2.428 1.689 2.868 5.122 1.634 7.625-1.454 2.954-5.1 3.958-8.21 3.162-3.52-.902-5.762-3.927-6.152-7.349-.194-1.725.062-3.47.744-5.074h.003Zm-7.541 3.679.215-.257c.758-.02 1.502-.228 1.927-.896a2.27 2.27 0 0 0 .295-1.476l.256-.248a3.31 3.31 0 0 1 0 1.05c-.248 1.376-1.454 1.818-2.696 1.827h.003Zm3.274 7.514c1.393-.4 3.027-.47 4.373.131 1.434.64 2.041 1.998 1.844 3.488-.072.441-.17.877-.295 1.307l-.248-.046c.295-1.17.54-2.337-.118-3.402-.85-1.37-2.744-1.626-4.246-1.458-1.882.211-3.443 1.233-5.06 2.103L20 99.04c1.34-.716 2.626-1.552 4.072-1.966Z" fill="#fff"/><path d="M26.02 84.528c5.974-4.623 7.994-5.42 17.396-5.528.078 0 .093.093.015.096-10.311.441-15.072 4.06-17.342 5.506-.06.034-.122-.032-.069-.074Zm9.665 16.364c1.677-2.776 3.512-5.463 5.363-8.145 1.85-2.682 3.679-5.376 5.592-8.01 1.081-1.493 2.154-2.99 3.277-4.447.03-.037.104 0 .077.042-1.674 2.773-3.497 5.47-5.318 8.157a501.42 501.42 0 0 1-5.556 8.037 136.026 136.026 0 0 1-3.277 4.445c-.069.071-.209 0-.158-.079Z" fill="#263238"/><path opacity=".1" d="M38 79.151 51.055 90 58 79.223 39.79 79c-.212 0-.428.014-.643.029l-1.02.11-.127.012Z" fill="#000"/><path d="M76.283 51.68c2.489 27.123-1.401 48.728-13.198 50.286-7.835 1.033-5.872-21.901-5.853-22.391.06-1.678.963-15.674 6.518-30.9 6.111-16.746 11.42-9.113 12.533 3.005Z" fill="#D3766A"/><path d="M76.309 51.679c2.398 27.12-1.35 48.724-12.72 50.281-7.55 1.033-8.606-18.306-8.589-18.796.062-1.678 3.878-19.266 9.231-34.489 5.89-16.746 11.006-9.113 12.078 3.004Z" fill="#0068FF"/><path d="M63 50.003c-1.581 5.091-3.02 10.236-4.417 15.383C57.253 70.554 55.834 75.716 55 81c1.895-9.066 5.64-21.905 8-31v.003Z" fill="#263238"/><path d="M62 52c-.803 1.3-1.404 2.685-.665 4-.094-1.318.496-2.685.665-4Z" fill="#263238"/><path d="M75.097 45.341c.135.192.258.386.378.59a22.425 22.425 0 0 0-.198-.805 5.224 5.224 0 0 0-.932-.973c-1.047-.834-2.632-1.491-3.97-.964-1.668.655-1.611 2.53-1.23 3.96.256.96.644 1.939.602 2.947a3.45 3.45 0 0 1-.779 2.063 5.17 5.17 0 0 1-1.85 1.4 5.27 5.27 0 0 1-2.288.46 4.153 4.153 0 0 1-2.526-.937 7.316 7.316 0 0 0-.093.277c1.988 1.503 5.043 1.073 6.754-.775 1.05-1.138 1.203-2.509.86-3.962-.39-1.61-1.582-4.486.791-5.22 1.645-.516 3.581.663 4.48 1.94Zm-2.821 10.827c-.117-.787 0-1.639.658-2.166a2.748 2.748 0 0 1 1.964-.469c.58.059 1.143.228 1.657.498 0 .103.018.206.024.31a4.954 4.954 0 0 0-.601-.28c-.791-.313-1.805-.44-2.59-.036-1.091.563-.953 1.878-.667 2.871.7 2.412 2.583 4.174 4.279 6.02v.395c-.863-.97-1.78-1.893-2.598-2.9-1.008-1.236-1.889-2.648-2.126-4.243ZM63.318 70.84c-1.868-3.18-2.316-8.035 1.461-10.093a4.52 4.52 0 0 1 4.812.233c1.503 1.044 2.426 2.73 3.133 4.357.788 1.819 1.504 3.832 3.037 5.179.354.318.76.574 1.203.758 0 .106 0 .209-.015.312-1.639-.56-2.73-2.317-3.431-3.755-.86-1.77-1.438-3.659-2.662-5.227-1.223-1.568-3.103-2.617-5.139-1.936-2.18.728-3.428 2.838-3.509 5.01-.15 3.971 2.707 7.258 5.617 9.655 2.668 2.19 5.663 3.994 8.18 6.36-.021.14-.042.278-.066.414a47.908 47.908 0 0 0-5.112-4.127c-2.821-2.014-5.741-4.13-7.51-7.14Zm-6.745 14.592c-.902-1.695-1.585-3.57-1.573-5.495 0-.15 0-.295.015-.445a6.28 6.28 0 0 1 .602-2.326 5.396 5.396 0 0 1 1.94-2.231 4.273 4.273 0 0 1 4.664-.068c1.446.908 2.38 2.514 2.739 4.127.52 2.343.087 4.749.039 7.113a23.324 23.324 0 0 0 3.584 12.846c.066.106.136.21.205.315-.081.077-.166.15-.25.225a21.6 21.6 0 0 1-1.867-3.452 23.636 23.636 0 0 1-1.778-6.27c-.315-2.276-.168-4.507-.045-6.78.118-2.187.046-4.478-1.257-6.347-1.145-1.644-3.148-2.653-5.136-1.833-1.987.82-3.103 2.895-3.145 4.958-.12 4.265 3.007 7.847 5.151 11.281 1.022 1.633 1.94 3.36 2.37 5.241.403 1.784.34 3.638-.184 5.392-.03.106-.066.212-.1.318-.101 0-.203 0-.3-.021.67-2.01.722-4.171.148-6.21-1.107-3.844-3.985-6.863-5.822-10.338Z" fill="#fff"/><path d="M76.843 55.009c.033 6.64-.14 13.29-.694 19.905-.704 8.276-2.67 25.724-13.352 26.548-1.674.1-3.217-.224-4.57-1.262-2.026-1.439-3.72-3.29-5.34-5.161-3.226-3.778-6.151-7.97-8.863-12.046l.65-.656-.674.633a119.97 119.97 0 0 0 2.67 4.234c2.715 4.016 8.979 13.24 13.58 14.561 5.638 1.239 9.875-2.6 12.166-7.338C77.46 83.855 77.163 66.717 76.852 55l-.009.009Z" fill="#263238"/><path d="M56.964 50s9.738-8.594 15.841-8.188l5.031 4.602s1.683.593 2.248-.431c1.39-2.541 1.865-8.753-3.544-12.965-4.956-3.865-15.414-3.444-22.418-1.903-6.732 1.48-10.537 5.147-8.631 9.407C47.396 44.782 56.964 50 56.964 50Z" fill="#0068FF"/><path opacity=".1" d="M56.851 48s-7.15-5.687-7.804-8.936c-.653-3.25 5.656-6.115 9.705-7.177 6.268-1.651 10.482-1.09 13.85 2.472C75.97 37.919 56.851 48 56.851 48Z" fill="#000"/><path d="M55.816 46.977c3.339.44 8.403-5.4 10.171-9.871.12-.294-.616-3.311-1.347-7.007-.435-2.243-.869-4.75-1.107-7.07C63.485 22.551 50 28.123 50 28.123s1.863 4.71 2.255 8.757c.027.32.027.642 0 .962v.16c-.098 1.84.333 8.546 3.56 8.974Z" fill="#D3766A"/><path d="M53.626 37.918c-.468.068-.94.093-1.413.077v-.15c.029-.3.029-.602 0-.901C51.828 33.16 50 28.75 50 28.75S60.81 24.514 63 24c-.183 2.554-1.3 12.88-9.374 13.918Z" fill="#263238"/><path d="M67.984 12.011c.367 5.267-5.692 18.872-10.042 21.227-6.306 3.425-14.95 1.921-17.489-5.081-2.47-6.791 5.749-24.384 10.45-26.354C57.824-1.1 67.442 4.229 67.984 12.01Z" fill="#D3766A"/><path d="M51.935 18.006c.035-.033.084.078.057.117-.655.958-1.17 2.126-.084 2.822.036.024 0 .069-.044.05-1.489-.607-.776-2.155.07-2.989Z" fill="#263238"/><path d="M53.246 16.783c1.591.542.39 3.663-1.084 3.163-1.475-.5-.25-3.613 1.084-3.163Zm-7.207-1.766c0-.042-.092 0-.107.056-.34.98-.894 2.041-1.904 2.03-.03 0-.044.047 0 .056 1.12.257 1.847-1.163 2.011-2.142Z" fill="#263238"/><path d="M46.02 14.155c-1.509-.684-2.825 2.272-1.426 2.897 1.4.624 2.701-2.329 1.426-2.897Zm8.985 3.107a13.114 13.114 0 0 1-1.266-.506c-.485-.198-.888-.31-1.183-.752a.652.652 0 0 1 .162-.812c.524-.4 1.184-.298 1.775-.08.605.196 1.111.6 1.42 1.136.323.562-.316 1.19-.908 1.014Zm-9.056-5.586c.452.072.907.121 1.364.148.524.051.938.142 1.42-.105a.686.686 0 0 0 .275-.35.655.655 0 0 0-.003-.437c-.26-.593-.887-.809-1.511-.894a2.663 2.663 0 0 0-1.823.343c-.568.33-.325 1.176.278 1.295Zm3.947 14.69c-.317.133-.669.346-1.03.247-.357-.14-.68-.35-.946-.616a.036.036 0 0 0-.062.008.033.033 0 0 0 0 .023c.065.233.195.445.376.613.18.169.405.287.65.344.468.085.828-.199 1.089-.543.035-.054-.03-.102-.077-.076Zm-.598-1.468c-1.035-.923-2.662-1.36-3.719-1.613-.103-.057-.12-.307-.097-.415l.855-1.937c-.323.029-1.932.108-1.76-.252 1.425-2.982 3.011-6.299 5.085-8.98a.095.095 0 0 1 .058-.042.099.099 0 0 1 .072.009.092.092 0 0 1 .045.055.088.088 0 0 1-.01.07c-1.25 2.916-3.029 5.605-4.336 8.519.503 0 1.334-.026 1.716.127.094.066-1.015 2.005-1.107 2.335 0 0 2.178.167 3.376 1.735.313.397.32.829-.178.389Z" fill="#263238"/><path d="M65.27 25c-2.355-.219-3.03-4.121-3.07-5.676-.042-1.556 2.114-7.341 1.834-9.757-.28-2.415-2.492-4-4.44-4.139-1.95-.139-5.09 1.313-6.337.698-1.248-.615-.497-3.571-1.397-3.917-1.98-.76-4.674 3.37-5.86 5.43 0 0 2.556-10.051 13.067-7.095 9.586 2.661 10.143 10.298 9.89 13.431C68.473 19.95 65.268 25 65.268 25Z" fill="#263238"/><path d="M51.368 23.835c.793.219 1.635.22 2.429.004a4.447 4.447 0 0 0 2.063-1.224 4.14 4.14 0 0 0 1.07-2.082 4.034 4.034 0 0 0-.245-2.307 4.244 4.244 0 0 0-1.488-1.833 4.588 4.588 0 0 0-4.657-.334 4.33 4.33 0 0 0-1.757 1.601 4.05 4.05 0 0 0-.46 3.192 4.244 4.244 0 0 0 2.037 2.57 4.59 4.59 0 0 0 1.008.413Zm2.276-7.553c.306.084.599.204.872.36a3.667 3.667 0 0 1 1.722 2.114 3.488 3.488 0 0 1-.26 2.666 3.758 3.758 0 0 1-2.103 1.773 3.978 3.978 0 0 1-2.804-.082 3.728 3.728 0 0 1-1.985-1.893 3.484 3.484 0 0 1-.09-2.677 3.697 3.697 0 0 1 1.855-2.009 3.974 3.974 0 0 1 2.793-.252Zm-11.588 3.764c1.622.447 3.558-.733 4.447-2.76a4.811 4.811 0 0 0 .335-3.059 2.736 2.736 0 0 0-.567-1.211 2.91 2.91 0 0 0-1.087-.826c-.83-.334-1.78-.224-2.683.3a5.099 5.099 0 0 0-2.055 2.369c-.94 2.142-.346 4.429 1.323 5.094.093.037.189.069.287.093Zm2.695-7.406c.072.02.144.043.213.07.34.154.638.385.865.671.228.287.38.622.443.977a4.293 4.293 0 0 1-.297 2.71c-.818 1.854-2.59 2.921-3.963 2.37-1.373-.552-1.82-2.505-1.005-4.361a4.519 4.519 0 0 1 1.814-2.106c.28-.18.596-.303.928-.36a2.541 2.541 0 0 1 1.002.029Z" fill="#EBEBEB"/><path d="m48.357 17.956.507-.282c-.387-.811-1.483-2.168-2.864-1.49l.232.56c1.237-.607 2.088 1.153 2.125 1.212ZM65.427 27l.573-.05c-.02-.285-.238-2.819-1.332-3.556-1.022-.688-8.34-3.173-8.65-3.278l-.171.588c2.1.71 7.733 2.677 8.52 3.21.728.49 1.02 2.392 1.06 3.086Z" fill="#EBEBEB"/><path d="M61.72 23.394s4.145-3.572 5.859-1.99c1.714 1.583-2.196 7.297-4.738 7.573C60.3 29.254 60 26.912 60 26.912l1.72-3.518Z" fill="#D3766A"/><path d="M65.969 23.04a.03.03 0 0 1 .022.01.04.04 0 0 1 .009.026.04.04 0 0 1-.01.026.03.03 0 0 1-.021.01c-1.731.275-2.927 1.71-3.887 3.277.613-.531 1.33-.713 1.967.154.031.045-.024.109-.066.085-.606-.348-1.099-.354-1.663.111a7.42 7.42 0 0 0-1.049 1.208c-.11.14-.343-.021-.249-.19a.175.175 0 0 1 .021-.04c.467-2.303 2.738-5.085 4.926-4.677Z" fill="#263238"/><path d="M57 48.008S64.772 35.917 74 35l-1.002 6.819s-5.48-.17-15.414 8.181L57 48.008Z" fill="#0068FF"/><path d="M76 42.294c-1.733-.27-3.474.052-5.124.506a22.853 22.853 0 0 0-4.745 1.998 38.932 38.932 0 0 0-4.352 2.76l-2.042 1.58-1.971 1.673-.221.189-.236-.128a43.88 43.88 0 0 1-5.01-3.22 24.524 24.524 0 0 1-2.304-1.885A15.19 15.19 0 0 1 48 43.577c1.361 1.43 2.973 2.562 4.603 3.65.819.538 1.662 1.045 2.513 1.53.852.486 1.707.978 2.573 1.417l-.454.058 1.974-1.73c.681-.55 1.377-1.086 2.063-1.618.687-.532 1.447-1 2.193-1.454.745-.454 1.511-.908 2.313-1.28a20.931 20.931 0 0 1 4.977-1.804c.427-.104.87-.163 1.305-.235.436-.073.884-.09 1.323-.096a7.895 7.895 0 0 1 2.617.279Z" fill="#263238"/><path d="M78 47a25.876 25.876 0 0 1-2.644-2.34A26.015 26.015 0 0 1 73 42a25.527 25.527 0 0 1 2.647 2.338c.84.83 1.626 1.72 2.353 2.662Z" fill="#263238"/><path d="M60.723 46.084c.319 2.967.363 5.954.13 8.927-.146 2.076-1.69 9.436-4.133 8.968-2.442-.468 2.022-4.944 3.093-8.8 1.084-3.919.212-6.82.28-9.179l.63.084Z" fill="#0068FF"/><path opacity=".1" d="M60.723 46.084c.319 2.967.363 5.954.13 8.927-.146 2.076-1.69 9.436-4.133 8.968-2.442-.468 2.022-4.944 3.093-8.8 1.084-3.919.212-6.82.28-9.179l.63.084Z" fill="#000"/><path d="M52.524 46a53.813 53.813 0 0 0-2.143 7.953c-.372 1.894-.941 8.86.939 9.042 1.88.183-.333-4.914-.224-8.635.107-3.775 1.407-6.168 1.904-8.282L52.524 46Z" fill="#0068FF"/><path opacity=".1" d="M52.524 46a53.813 53.813 0 0 0-2.143 7.953c-.372 1.894-.941 8.86.939 9.042 1.88.183-.333-4.914-.224-8.635.107-3.775 1.407-6.168 1.904-8.282L52.524 46Z" fill="#000"/><path d="M60.824 99.908c-6.195-.964-16.345-15.09-22.778-31.237-1.225-3.073 22.347-15.5 23.287-12.081 2.992 10.965 8.852 25.307 8.663 34.153-.155 6.878-4.89 9.834-9.172 9.165Z" fill="#D3766A"/><path d="M50.148 45.422c1.499-1.797 1.728-6.825 3.072-9.788 1.345-2.964 5.285-4.354 5.98-3.265.693 1.09-.335 2.187-.657 7.056-.206 3.128 2.242 9.384 1.196 15.072-.525 2.852-11.106-7.277-9.59-9.075Z" fill="#F7A9A0"/><path d="M50.148 45.422c1.499-1.797 1.728-6.825 3.072-9.788 1.345-2.964 5.285-4.354 5.98-3.265.693 1.09-.335 2.187-.657 7.056-.206 3.128 2.242 9.384 1.196 15.072-.525 2.852-11.106-7.277-9.59-9.075Z" fill="#D3766A"/><path opacity=".06" d="M50.148 45.422c1.499-1.797 1.728-6.825 3.072-9.788 1.345-2.964 5.285-4.354 5.98-3.265.693 1.09-.335 2.187-.657 7.056-.206 3.128 2.242 9.384 1.196 15.072-.525 2.852-11.106-7.277-9.59-9.075Z" fill="#000"/><path d="M38.45 29.583c-2.09 1.956 3.156 6.717 3.156 6.717s-1.906-.516-3.563.412c-1.897 1.06-1.07 4.512-1.07 4.512s-2.04-.121-3.69 1.034c-1.716 1.2-1.375 4.802-1.375 4.802s-1.96.934-2.672 2.96c-1.22 3.467 2.603 7.625 4.454 10.669 1.987 3.258 4.48 7.303 5.909 9.311L62 58.568s-3.838-17.187-6.878-20.13c-2.571-2.477-13.49-11.847-16.671-8.855Z" fill="#D3766A"/><path d="M41.806 36.324c3.353 1.989 6.226 4.783 8.96 7.51a.068.068 0 0 1-.048.116.067.067 0 0 1-.048-.02c-2.696-2.744-6.185-4.827-8.983-7.458a.095.095 0 0 1-.031-.1.094.094 0 0 1 .15-.048Zm-4.448 4.839c.746.472 1.332 1.193 1.922 1.84.636.697 1.26 1.409 1.87 2.126a114.857 114.857 0 0 1 3.57 4.407c.051.067-.038.164-.096.097a123.25 123.25 0 0 0-3.757-4.224c-.642-.69-1.29-1.37-1.942-2.041-.605-.633-1.298-1.249-1.755-2.007a.138.138 0 0 1 .04-.225.134.134 0 0 1 .148.026Zm-5.29 6.049c.666.385 1.157 1.166 1.645 1.75.544.669 1.092 1.334 1.645 1.995 1.104 1.321 2.208 2.642 3.358 3.926.058.064-.037.16-.095.096-1.173-1.298-2.364-2.578-3.526-3.888a105.173 105.173 0 0 1-1.702-1.937c-.48-.551-1.142-1.184-1.39-1.887a.047.047 0 0 1 .04-.061c.008 0 .018.001.026.006ZM41.053 29c3.8 1.587 8.355 4.958 11.026 7.053.997.78 1.953 1.61 2.864 2.49.885.896 1.463 2.042 2.023 3.165.385.761.711 1.552 1.035 2.333-.578-2.041-1.272-4.211-2.711-5.833-.9-.926-1.86-1.79-2.873-2.587-2.688-2.086-5.445-4.2-8.572-5.562L41.052 29Z" fill="#263238"/><path d="M66.282 63 44 82.552s11.651 18.811 17.084 18.443c5.433-.369 11.337-3.883 10.892-16.93C71.87 80.798 66.282 63 66.282 63Z" fill="#0068FF"/><path d="m70.705 77.687.295.207c-.041-.155-.086-.311-.127-.47-1.047-.76-2.095-1.521-3.092-2.341-2.517-2.061-4.981-4.798-5.439-8.083l-.224.193a10.224 10.224 0 0 0 1.26 3.465c1.723 2.964 4.589 5.037 7.327 7.029Zm-12.998-3a4.194 4.194 0 0 1 2.278-.71 4.199 4.199 0 0 1 2.298.644c1.42.89 2.337 2.462 2.689 4.041.51 2.295.085 4.651.038 6.966a22.785 22.785 0 0 0 3.455 12.468c-.08.08-.162.159-.245.234a22.347 22.347 0 0 1-1.567-2.98 23.113 23.113 0 0 1-1.744-6.14c-.31-2.228-.165-4.413-.044-6.639.115-2.142.044-4.385-1.233-6.215-1.124-1.61-3.09-2.598-5.04-1.796-1.95.803-3.042 2.838-3.084 4.859-.118 4.177 2.951 7.684 5.055 11.047 1.003 1.6 1.903 3.291 2.325 5.133a10.402 10.402 0 0 1-.203 5.352l-.316.049c.606-1.922.637-3.974.088-5.912-1.083-3.753-3.907-6.7-5.71-10.104-.94-1.786-1.658-3.778-1.528-5.816a5.582 5.582 0 0 1 .7-2.53 5.72 5.72 0 0 1 1.788-1.954v.003Zm-6.628 15.205c1.593.153 2.992 1.154 3.334 2.728.242 1.126-.04 2.28-.534 3.34-.067-.078-.141-.156-.212-.234.758-1.761.885-4.007-1.039-5.092a4.109 4.109 0 0 0-3.337-.266c-.06-.078-.115-.156-.177-.234a4.574 4.574 0 0 1 1.965-.245v.003Zm-6.834-7.335a4.929 4.929 0 0 0 2.157.037c2.785-.577 4.886-3.256 4.653-5.895l.295-.262c.458 3.016-2.115 6.033-5.149 6.495a5.227 5.227 0 0 1-2.186-.153L44 82.753l.245-.196Z" fill="#fff"/><path d="M66.872 71.023c-1.114.938-2.154 1.974-3.212 2.975-1.057 1-2.11 2.016-3.146 3.043a566.595 566.595 0 0 0-6.165 6.21c-.556.573-1.111 1.145-1.658 1.73-.547.584-1.09 1.32-1.682 1.935a.054.054 0 0 0 .04.084.054.054 0 0 0 .035-.01c.516-.494 1.105-.916 1.634-1.401a83.585 83.585 0 0 0 1.619-1.537 571.133 571.133 0 0 0 3.125-3.062c2.08-2.05 4.14-4.113 6.145-6.228 1.132-1.199 2.311-2.373 3.372-3.634a.074.074 0 0 0 .021-.054.074.074 0 0 0-.023-.053.075.075 0 0 0-.081-.015.075.075 0 0 0-.024.017Z" fill="#263238"/><path d="m64 65.352 2.735-2.157-.133-.035c1.3 4.616 2.735 9.198 4.081 13.8a59.006 59.006 0 0 1 1.543 6.046c.353 2.654.361 5.338.025 7.994.68-2.638.9-5.363.648-8.067-.67-4.462-2.188-8.767-3.602-13.055A146.078 146.078 0 0 0 66.717 63l-.09.076-2.624 2.276H64Z" fill="#263238"/><path d="M.458 72.06C4.178 77.288 8.056 83.355 9 89.91c0 .097-.142.13-.164.032a39.928 39.928 0 0 0-1.645-5.248c-2.445-.697-4.844-1.271-6.129-3.79-1.31-2.59-1.134-5.964-.893-8.787.017-.144.215-.144.29-.055Z" fill="#0068FF"/><path d="M6.992 84.89C5.216 81.039 2.937 77.173.04 74.007A.023.023 0 0 0 .023 74a.024.024 0 0 0-.016.006.021.021 0 0 0-.002.03c1.897 2.258 3.342 4.713 4.75 7.213-1.312-1.285-2.744-2.436-3.986-3.787-.024-.03-.064 0-.04.038 1.234 1.427 2.579 2.977 4.18 4.034.43.765.865 1.533 1.305 2.304-.108-.058-.22-.11-.328-.163-.022 0-.037.02-.019.03.124.06.245.121.371.174.208.364.413.728.627 1.092.049.07.166 0 .127-.081Zm-1.32-1.343a23.817 23.817 0 0 1-3.037-1.958c-.024-.02-.063 0-.036.035a16.165 16.165 0 0 0 3.015 1.996c.063.023.106-.047.057-.073Z" fill="#263238"/><path d="M8.742 88.941c0 .08-.136.077-.133 0-.02-2.161 0-4.334-.034-6.508-.52-1.117-1.635-1.737-2.413-2.63a11.631 11.631 0 0 1-1.448-2.15 16.193 16.193 0 0 1-1.68-5.965c-.213-2.312.612-9.947 1.525-9.681.476.135 2.012 3.919 2.42 5.166a37.978 37.978 0 0 1 1.444 6.34c.742 5.08.676 10.306.319 15.428Z" fill="#0068FF"/><path d="M8.976 79.175c-.101-2.552-.629-5.128-1.121-7.602-.533-2.667-1.156-5.177-2.416-7.555-.022-.044-.083 0-.06.041.84 1.85 1.49 3.794 1.938 5.799-.086-.146-.186-.275-.275-.418-.035-.052-.116 0-.08.052.111.216.243.418.393.605a.02.02 0 0 0 .015 0c.435 1.905.745 3.849 1.01 5.798l-.06-.074c-.013-.017-.036 0-.028.022.033.066.07.129.106.195.136.987.252 1.971.383 2.947-1.613-1.501-2.988-3.272-3.766-5.454H5c.757 2.262 1.961 4.272 3.81 5.646.032.275.065.526.1.787 0 .055.086.041.086 0 0-.234 0-.468-.02-.699a.05.05 0 0 0 .018-.019.056.056 0 0 0 0-.052.05.05 0 0 0-.018-.02Z" fill="#263238"/><path d="M7.994 75.926c-1.112-2.277-2.149-4.488-2.956-7.002 0-.029-.046 0-.037.018.683 2.499 1.645 5.035 2.941 7.044.023.04.075-.013.052-.06Zm-1.476-7.565c-.455-1.118-.946-2.208-1.378-3.348-.014-.031-.046 0-.034.028.354 1.19.803 2.323 1.34 3.377.031.056.097.006.072-.057Zm.169.484v.022s.02-.022 0-.022Z" fill="#263238"/><path d="M10.379 82.304c.031 1.424.217 2.842.553 4.233-.022.152-.048.293-.07.463a18.282 18.282 0 0 1-.84-4.72.133.133 0 0 1 0-.146c-.07-2.143.103-4.287.519-6.398.735-3.946 2.342-7.737 5.387-10.696a.231.231 0 0 1 .177-.036.23.23 0 0 1 .085.034.207.207 0 0 1 .062.063c1.228 2.827.8 6.2-.246 9.018a15.932 15.932 0 0 1-2.417 4.28c-1.03 1.33-2.362 2.452-3.21 3.905Z" fill="#0068FF"/><path d="M14.923 67.01c-2.204 4.133-3.738 9.032-3.923 13.914 0 .085.121.108.131.02a71.3 71.3 0 0 1 .17-1.304c.913-1.009 1.848-2.072 2.501-3.335 0-.02-.017-.049-.032-.026a34.102 34.102 0 0 1-2.429 3.053c.165-1.079.354-2.141.567-3.187.059-.08.116-.16.175-.237.06-.078-.027-.13-.066-.075l-.052.066c.31-1.435.694-2.847 1.152-4.227.56-.772 1.187-1.43 1.595-2.373a.023.023 0 0 0 0-.014.02.02 0 0 0-.007-.01.015.015 0 0 0-.012-.003.017.017 0 0 0-.01.007c-.33.535-.646 1.07-1.02 1.564-.148.197-.31.38-.464.572a35.144 35.144 0 0 1 1.8-4.348.066.066 0 0 0-.003-.033.057.057 0 0 0-.019-.025.045.045 0 0 0-.027-.009c-.01 0-.02.004-.027.01Z" fill="#263238"/><path d="M14.934 72.016c-.9 1.209-1.923 2.364-2.76 3.617-.025.034.028.072.059.044 1.074-1.01 1.983-2.383 2.76-3.626.025-.038-.025-.072-.06-.035Zm-2.885 3.895-.038.04c-.028.026 0 .066.04.041l.038-.037c.028-.028-.015-.069-.04-.044Z" fill="#263238"/><path d="M18.998 75.237c-.208 2.08-1.338 4.563-2.717 6.165a6.71 6.71 0 0 1-2.205 1.663c-.954.459-1.954.984-2.94 1.36A18.01 18.01 0 0 0 10.096 88L10 87.684c.633-5.265 4.157-9.766 8.672-12.654a.222.222 0 0 1 .23.004.211.211 0 0 1 .078.088.203.203 0 0 1 .018.115Z" fill="#0068FF"/><path d="M17.987 76.072c.033-.032 0-.093-.048-.064-2.559 2.05-4.6 4.762-5.933 7.884-.033.08.072.155.117.071.215-.409.436-.805.66-1.198 1.063-.216 2.07-1.024 2.859-1.79.02-.02 0-.052-.03-.033-.407.4-.86.741-1.347 1.018-.434.238-.897.386-1.35.576a33.76 33.76 0 0 1 1.233-1.932 12.145 12.145 0 0 0 3.204-1.94.034.034 0 0 0 .004-.039.03.03 0 0 0-.02-.016l-.013.001a30.524 30.524 0 0 1-2.98 1.717 29.037 29.037 0 0 1 2.09-2.635c.362-.206.73-.412 1.079-.644a.032.032 0 0 0 .012-.018.035.035 0 0 0-.002-.022.031.031 0 0 0-.014-.016.028.028 0 0 0-.02-.002c-.29.11-.569.258-.828.438.43-.46.864-.915 1.327-1.356Zm-.099 2.094a1.489 1.489 0 0 0-.18.138c-.017 0 0 .042.025.032.061-.037.12-.08.176-.125.042 0 0-.068-.02-.045Z" fill="#263238"/><path d="M3 100h13l-1.05-11.47L14.72 86H4.279l-.23 2.53L3 100Z" fill="#455A64"/><path d="M4 89h11l-.233-3H4.23L4 89Z" fill="#263238"/><path d="M15 84H4v3h11v-3Z" fill="#455A64"/></svg>